<svg xmlns="http://www.w3.org/2000/svg" viewBox="0 0 45.18 45.18"><defs><style>.cls-1{fill:#a8a7a7;}.cls-2{fill:none;}</style></defs><g id="Layer_7" data-name="Layer 7"><path class="cls-1" d="M30.68,26.49a3.9,3.9,0,1,1,3.9-3.9A3.91,3.91,0,0,1,30.68,26.49Zm0-5.29a1.39,1.39,0,1,0,1.39,1.39A1.4,1.4,0,0,0,30.68,21.2Z"/><path class="cls-1" d="M24.86,37.61H23.61V7.7h1.25c7.67,0,13.9,6.71,13.9,15S32.53,37.61,24.86,37.61Zm1.26-27.32V35c5.69-.69,10.13-6,10.13-12.37S31.81,11,26.12,10.29Z"/><rect class="cls-1" x="24.86" y="21.4" width="3.17" height="2.51"/><path class="cls-1" d="M14.7,26.49a3.9,3.9,0,1,1,3.91-3.9A3.91,3.91,0,0,1,14.7,26.49Zm0-5.29a1.39,1.39,0,1,0,1.4,1.39A1.39,1.39,0,0,0,14.7,21.2Z"/><path class="cls-1" d="M21.77,37.61H20.52c-7.67,0-13.9-6.71-13.9-14.95s6.23-15,13.9-15h1.25ZM19.26,10.29c-5.69.68-10.13,6-10.13,12.37S13.57,34.34,19.26,35Z"/><rect class="cls-1" x="17.35" y="21.4" width="3.17" height="2.51"/><rect class="cls-2" width="45.18" height="45.18"/></g></svg>