<svg xmlns="http://www.w3.org/2000/svg" viewBox="0 0 45.18 45.18"><defs><style>.cls-1{fill:#a8a7a7;}.cls-2{fill:none;}</style></defs><g id="Layer_7" data-name="Layer 7"><path class="cls-1" d="M25.18,9.08A16.8,16.8,0,0,1,28,9.86a16.62,16.62,0,0,1,7.93,6.32,16.7,16.7,0,0,1,2.32,5.44,16.53,16.53,0,0,1,.23,6.11,16.93,16.93,0,0,1-.94,3.52l-3.2-1.9a11.71,11.71,0,0,0,.52-2.16,12.92,12.92,0,0,0-.17-4.76,12.84,12.84,0,0,0-8-9.15,12.5,12.5,0,0,0-1.58-.48Z"/><path class="cls-1" d="M7.56,30.84q-.24-.66-.42-1.35a16.44,16.44,0,0,1,.65-10.41,17,17,0,0,1,.9-1.88L9,16.66a15.82,15.82,0,0,1,1.34-1.87,16.3,16.3,0,0,1,3.44-3.14,16.54,16.54,0,0,1,4.27-2.07A17.89,17.89,0,0,1,20.59,9l-.06,3.72a12.7,12.7,0,0,0-4.69,2,12.9,12.9,0,0,0-2.67,2.44,13.77,13.77,0,0,0-1,1.46l-.18.28a13.28,13.28,0,0,0-.78,1.61A12.81,12.81,0,0,0,10.3,24,13.11,13.11,0,0,0,10.8,29Z"/><rect class="cls-1" x="17.32" y="6.1" width="3.57" height="10.32"/><rect class="cls-1" x="24.74" y="6.1" width="3.57" height="10.32"/><rect class="cls-1" x="15.13" y="33.8" width="14.92" height="4.18"/><rect class="cls-2" width="45.18" height="45.18"/></g></svg>