<svg xmlns="http://www.w3.org/2000/svg" viewBox="0 0 45.18 45.18"><defs><style>.cls-1{fill:#a8a7a7;}.cls-2{fill:none;}</style></defs><g id="Layer_7" data-name="Layer 7"><path class="cls-1" d="M22.39,6.64a4.66,4.66,0,1,1-4.66,4.66A4.66,4.66,0,0,1,22.39,6.64Zm0,6.62a2,2,0,1,0-2-2A2,2,0,0,0,22.39,13.26Z"/><rect class="cls-1" x="20.73" y="14.71" width="3.32" height="23.88" transform="translate(44.78 53.31) rotate(180)"/><path class="cls-1" d="M36.18,13.75a4.66,4.66,0,1,1-6.59,0A4.67,4.67,0,0,1,36.18,13.75Zm-4.69,4.68a2,2,0,1,0,0-2.78A2,2,0,0,0,31.49,18.43Z"/><rect class="cls-1" x="25.04" y="17.9" width="3.32" height="10.67" transform="translate(29.15 58.53) rotate(-135)"/><path class="cls-1" d="M15.58,13.75a4.65,4.65,0,1,1-6.58,0A4.65,4.65,0,0,1,15.58,13.75Zm-1.9,1.9a2,2,0,1,0,0,2.78A2,2,0,0,0,13.68,15.65Z"/><rect class="cls-1" x="16.82" y="17.9" width="3.32" height="10.67" transform="translate(-11.01 19.87) rotate(-45)"/><rect class="cls-2" width="45.18" height="45.18"/></g></svg>