<svg xmlns="http://www.w3.org/2000/svg" viewBox="0 0 38.43 36.95"><defs><style>.cls-1{fill:none;}.cls-2{fill:#99a9b3;}</style></defs><g id="Layer_2" data-name="Layer 2"><rect class="cls-1" x="0.03" width="38.4" height="36.95"/><rect class="cls-1" width="38.4" height="36.95"/><path class="cls-2" d="M6.23,17.19,4.77,16.8l.06-.24A14,14,0,0,1,17.57,6.08,10.1,10.1,0,0,0,15.8,1.74l-.14-.21L16.89.65,17,.86a11.53,11.53,0,0,1,2.14,5.91.75.75,0,0,1-.62.8.7.7,0,0,1-.29,0,12.55,12.55,0,0,0-12,9.38Z"/><path class="cls-2" d="M18.34,34.2A14,14,0,0,1,6.63,27.9a10,10,0,0,0-2.87,3.68l-.1.23-1.38-.62.1-.23a11.66,11.66,0,0,1,4-4.79.76.76,0,0,1,1,.15.7.7,0,0,1,.13.24,12.54,12.54,0,0,0,14.1,5.67l.25-.06.4,1.45-.24.07A13.94,13.94,0,0,1,18.34,34.2Z"/><path class="cls-2" d="M34.66,28.63a11.71,11.71,0,0,1-5.06-1.16.77.77,0,0,1-.38-.95,1,1,0,0,1,.15-.24,12.54,12.54,0,0,0-2.14-15l-.18-.18L28.11,10l.18.17A14,14,0,0,1,31,26.43a10.14,10.14,0,0,0,4.69.63l.25,0,.15,1.5-.25,0A11.66,11.66,0,0,1,34.66,28.63Z"/></g></svg>