<svg xmlns="http://www.w3.org/2000/svg" viewBox="0 0 171.94 58.54"><defs><style>.cls-1{fill:#99a9b3;}</style></defs><g id="Layer_6" data-name="Layer 6"><path d="M17.31,3h84.31a0,0,0,0,1,0,0v36.4A16.19,16.19,0,0,1,85.43,55.57H1.12a0,0,0,0,1,0,0V19.16A16.19,16.19,0,0,1,17.31,3Z"/><path class="cls-1" d="M85.43,56.69H0V19.16A17.34,17.34,0,0,1,17.31,1.85h85.43V39.38A17.33,17.33,0,0,1,85.43,56.69ZM2.24,54.45H85.43A15.09,15.09,0,0,0,100.5,39.38V4.09H17.31A15.09,15.09,0,0,0,2.24,19.16Z"/><circle cx="142.67" cy="29.27" r="28.2"/><path class="cls-1" d="M142.67,58.54a29.27,29.27,0,1,1,29.27-29.27A29.3,29.3,0,0,1,142.67,58.54Zm0-56.4A27.13,27.13,0,1,0,169.8,29.27,27.17,27.17,0,0,0,142.67,2.14Z"/><rect class="cls-1" x="101.62" y="28.2" width="12.85" height="2.14"/></g></svg>