<svg width="294" height="440" viewBox="0 0 294 440" fill="none" xmlns="http://www.w3.org/2000/svg">
<g clip-path="url(#clip0_440_2)" filter="url(#filter0_d_440_2)">
<path fill-rule="evenodd" clip-rule="evenodd" d="M246.098 0H186.843V29.0009H246.098V0ZM95.0581 122.981C84.6131 125.731 74.7649 130.588 66.1499 137.332C52.1867 148.262 42.2565 163.527 37.9233 180.722C33.59 197.917 35.1001 216.065 42.2155 232.307C49.331 248.549 61.6475 261.963 77.2251 270.435C92.8027 278.908 110.756 281.957 128.257 279.104C145.759 276.25 161.814 267.655 173.893 254.673C185.972 241.692 193.39 225.06 194.977 207.399C196.565 189.738 192.232 172.05 182.661 157.122L164.525 130.211L289.136 5.59912V119.931H260.219V75.2178L201.716 133.721L206.48 140.658C217.317 157.048 223.507 176.07 224.39 195.699C225.273 215.328 220.816 234.829 211.495 252.126C202.173 269.423 188.335 283.868 171.454 293.924C158.791 301.468 144.771 306.329 130.261 308.271L129.952 432H100.25V381.451H41.2207V351.657H100.25V309.134L92.2249 307.566C68.5947 302.559 47.3002 289.911 31.6085 271.617C29.6071 269.33 27.6956 266.952 25.8807 264.487C9.80006 242.647 2.46907 215.583 5.32844 188.613C7.81337 165.174 17.8383 143.28 33.7466 126.145C48.9942 109.391 69.0954 97.7152 91.3284 92.8105C99.1518 91.0847 107.089 90.2305 115 90.231V91.4308L115.048 91.4315V120.349L115 120.349V120.411C109.316 120.422 103.615 121.04 97.9937 122.277C97.0092 122.493 96.0306 122.728 95.0581 122.981ZM213.623 351.657H154.219V381.451H213.623V351.657Z" fill="#99A9B3"/>
</g>
<defs>
<filter id="filter0_d_440_2" x="0" y="0" width="294" height="440" filterUnits="userSpaceOnUse" color-interpolation-filters="sRGB">
<feFlood flood-opacity="0" result="BackgroundImageFix"/>
<feColorMatrix in="SourceAlpha" type="matrix" values="0 0 0 0 0 0 0 0 0 0 0 0 0 0 0 0 0 0 127 0" result="hardAlpha"/>
<feOffset dy="4"/>
<feGaussianBlur stdDeviation="2"/>
<feComposite in2="hardAlpha" operator="out"/>
<feColorMatrix type="matrix" values="0 0 0 0 0 0 0 0 0 0 0 0 0 0 0 0 0 0 0.25 0"/>
<feBlend mode="normal" in2="BackgroundImageFix" result="effect1_dropShadow_440_2"/>
<feBlend mode="normal" in="SourceGraphic" in2="effect1_dropShadow_440_2" result="shape"/>
</filter>
<clipPath id="clip0_440_2">
<rect width="286" height="432" fill="white" transform="translate(4)"/>
</clipPath>
</defs>
</svg>
