<svg xmlns="http://www.w3.org/2000/svg" viewBox="0 0 45.18 45.18"><defs><style>.cls-1{fill:none;}.cls-2{fill:#a8a7a7;}</style></defs><g id="Layer_7" data-name="Layer 7"><rect class="cls-1" width="45.18" height="45.18"/><path class="cls-2" d="M16.17,23.09a3.9,3.9,0,1,1-3.9-3.9A3.91,3.91,0,0,1,16.17,23.09Zm-5.29,0a1.39,1.39,0,1,0,1.39-1.39A1.39,1.39,0,0,0,10.88,23.09Z"/><path class="cls-2" d="M36.81,23.09a3.9,3.9,0,1,1-3.9-3.9A3.91,3.91,0,0,1,36.81,23.09Zm-5.29,0a1.39,1.39,0,1,0,1.39-1.39A1.39,1.39,0,0,0,31.52,23.09Z"/><path class="cls-2" d="M26.23,17.28a3.9,3.9,0,1,1,5.33-1.42A3.91,3.91,0,0,1,26.23,17.28Zm2.65-4.58a1.39,1.39,0,0,0-1.4,2.41,1.39,1.39,0,1,0,1.4-2.41Z"/><path class="cls-2" d="M15.91,35.15a3.9,3.9,0,1,1,5.33-1.42A3.91,3.91,0,0,1,15.91,35.15Zm2.65-4.58a1.39,1.39,0,1,0,.51,1.9A1.39,1.39,0,0,0,18.56,30.57Z"/><path class="cls-2" d="M19.81,16.78a3.9,3.9,0,1,1,1.43-5.33A3.9,3.9,0,0,1,19.81,16.78ZM17.17,12.2a1.38,1.38,0,0,0-.51,1.9,1.39,1.39,0,1,0,2.41-1.39A1.38,1.38,0,0,0,17.17,12.2Z"/><path class="cls-2" d="M30.13,34.65a3.9,3.9,0,1,1,1.43-5.33A3.9,3.9,0,0,1,30.13,34.65Zm-2.65-4.58a1.39,1.39,0,1,0,1.91.51A1.4,1.4,0,0,0,27.48,30.07Z"/><path class="cls-2" d="M22.59,40.57a18,18,0,1,1,18-18A18,18,0,0,1,22.59,40.57Zm0-33a15,15,0,1,0,15,15A15,15,0,0,0,22.59,7.61Z"/><path class="cls-2" d="M22.59,28.68a6.09,6.09,0,1,1,6.09-6.09A6.09,6.09,0,0,1,22.59,28.68Zm0-9.18a3.09,3.09,0,1,0,3.09,3.09A3.09,3.09,0,0,0,22.59,19.5Z"/></g></svg>