<svg viewBox="0 0 100.35 47.91" xmlns="http://www.w3.org/2000/svg"><path d="m0 0h100.35v47.91h-100.35z" fill="none"/><g fill="#e7372c"><path d="m57.8 42.68a14.32 14.32 0 0 1 -9.74-4l-6.71-6.68a10.74 10.74 0 0 1 -.29-15.15 10.74 10.74 0 0 1 15.15.29l6.71 6.72a14.14 14.14 0 0 1 4 9.7 9.06 9.06 0 0 1 -2.5 6.62 9.14 9.14 0 0 1 -6.62 2.5zm-9.43-25a6.42 6.42 0 0 0 -4.59 1.87 6.88 6.88 0 0 0 .29 9.71l6.71 6.74c2.79 2.79 8.37 4 10.9 1.48a5.44 5.44 0 0 0 1.37-3.91 10.26 10.26 0 0 0 -2.85-7l-6.71-6.72a7.24 7.24 0 0 0 -5.12-2.13z"/><path d="m51.32 28.36h6.62v4.08h-6.62z" transform="matrix(.70710678 -.70710678 .70710678 .70710678 -5.5 47.54)"/><path d="m43.8 5.48-3.78 3.77v6.7h-6.92l-3.55 3.77h12.36l1.89-1.88z"/></g></svg>