<svg id="Layer_1" data-name="Layer 1" xmlns="http://www.w3.org/2000/svg" viewBox="0 0 99.92 47.7"><defs><style>.cls-1{fill:#e7372c;}.cls-2{fill:none;}</style></defs><path class="cls-1" d="M85.6,42.49a14.23,14.23,0,0,1-9.7-3.93l-6.68-6.68a10.68,10.68,0,0,1-.29-15.08A10.68,10.68,0,0,1,84,17.09l6.68,6.69a14.12,14.12,0,0,1,4,9.65,9,9,0,0,1-2.5,6.6A9.08,9.08,0,0,1,85.6,42.49ZM76.2,17.64a6.42,6.42,0,0,0-4.57,1.86,6.86,6.86,0,0,0,.29,9.68l6.68,6.68c2.78,2.77,8.34,4,10.85,1.47a5.41,5.41,0,0,0,1.37-3.89,10.31,10.31,0,0,0-2.83-7l-6.68-6.69A7.24,7.24,0,0,0,76.2,17.64Z"/><rect class="cls-1" x="79.14" y="28.24" width="6.59" height="4.06" transform="translate(2.74 67.16) rotate(-45)"/><polygon class="cls-1" points="71.65 5.46 67.89 9.21 67.89 15.88 61 15.88 57.47 19.64 69.77 19.64 71.65 17.76 71.65 5.46"/><path class="cls-1" d="M28.76,42.49a14.23,14.23,0,0,1-9.69-3.93l-6.69-6.68a10.69,10.69,0,0,1-.29-15.08,10.68,10.68,0,0,1,15.08.29l6.68,6.69a14.08,14.08,0,0,1,4,9.65A9,9,0,0,1,35.32,40,9.11,9.11,0,0,1,28.76,42.49ZM19.37,17.64a6.44,6.44,0,0,0-4.58,1.86,6.87,6.87,0,0,0,.3,9.68l6.68,6.68c2.77,2.77,8.33,4,10.85,1.47A5.5,5.5,0,0,0,34,33.44a10.27,10.27,0,0,0-2.84-7l-6.68-6.69A7.24,7.24,0,0,0,19.37,17.64Z"/><rect class="cls-1" x="22.31" y="28.24" width="6.59" height="4.06" transform="translate(-13.91 26.97) rotate(-45)"/><polygon class="cls-1" points="14.82 5.46 11.06 9.21 11.06 15.88 4.16 15.88 0.64 19.64 12.94 19.64 14.82 17.76 14.82 5.46"/><rect class="cls-2" width="99.92" height="47.7"/></svg>