<svg id="Layer_1" data-name="Layer 1" xmlns="http://www.w3.org/2000/svg" viewBox="0 0 99.92 47.7"><defs><style>.cls-1{fill:#e7372c;}.cls-2{fill:none;}.cls-3{fill:#00933f;}</style></defs><path class="cls-1" d="M28.76,42.49a14.23,14.23,0,0,1-9.69-3.93l-6.69-6.68a10.69,10.69,0,0,1-.29-15.08,10.68,10.68,0,0,1,15.08.29l6.68,6.69a14.08,14.08,0,0,1,4,9.65A9,9,0,0,1,35.32,40,9.11,9.11,0,0,1,28.76,42.49ZM19.37,17.64a6.44,6.44,0,0,0-4.58,1.86,6.87,6.87,0,0,0,.3,9.68l6.68,6.68c2.77,2.77,8.33,4,10.85,1.47A5.5,5.5,0,0,0,34,33.44a10.27,10.27,0,0,0-2.84-7l-6.68-6.69A7.24,7.24,0,0,0,19.37,17.64Z"/><rect class="cls-1" x="22.31" y="28.24" width="6.59" height="4.06" transform="translate(-13.91 26.97) rotate(-45)"/><polygon class="cls-1" points="14.82 5.46 11.06 9.21 11.06 15.88 4.16 15.88 0.64 19.64 12.94 19.64 14.82 17.76 14.82 5.46"/><rect class="cls-2" width="99.92" height="47.7"/><path class="cls-3" d="M93.44,41.55H59.15V37.32h2.53V25.63a14.62,14.62,0,0,1,29.23,0V37.32h2.53ZM82.21,37.32h4.47V25.63a10.39,10.39,0,0,0-20.77,0V37.32h3.84V25.39H74V37.32h4V25.39h4.23ZM85,8.71H76.17V4.48H85Z"/></svg>