<svg id="Layer_1" data-name="Layer 1" xmlns="http://www.w3.org/2000/svg" viewBox="0 0 99.92 47.7"><defs><style>.cls-1{fill:#e7372c;}.cls-2{fill:none;}.cls-3{fill:#006ab5;}</style></defs><path class="cls-1" d="M28.76,42.49a14.23,14.23,0,0,1-9.69-3.93l-6.69-6.68a10.69,10.69,0,0,1-.29-15.08,10.68,10.68,0,0,1,15.08.29l6.68,6.69a14.08,14.08,0,0,1,4,9.65A9,9,0,0,1,35.32,40,9.11,9.11,0,0,1,28.76,42.49ZM19.37,17.64a6.44,6.44,0,0,0-4.58,1.86,6.87,6.87,0,0,0,.3,9.68l6.68,6.68c2.77,2.77,8.33,4,10.85,1.47A5.5,5.5,0,0,0,34,33.44a10.27,10.27,0,0,0-2.84-7l-6.68-6.69A7.24,7.24,0,0,0,19.37,17.64Z"/><rect class="cls-1" x="22.31" y="28.24" width="6.59" height="4.06" transform="translate(-13.91 26.97) rotate(-45)"/><polygon class="cls-1" points="14.82 5.46 11.06 9.21 11.06 15.88 4.16 15.88 0.64 19.64 12.94 19.64 14.82 17.76 14.82 5.46"/><rect class="cls-2" width="99.92" height="47.7"/><path class="cls-3" d="M65.1,41.88a3.95,3.95,0,1,0-3.95-3.94,3.94,3.94,0,0,0,3.95,3.94"/><rect class="cls-3" x="80.92" y="24.78" width="2.86" height="8.74" transform="translate(3.21 66.12) rotate(-44.53)"/><path class="cls-3" d="M68.41,31.92l-3.92-.82,1.44-6.86,3.92.82Zm9.47-15.28-.83-3.92,7.12-1.5L85,15.13Z"/><path class="cls-3" d="M91,15.75a3.95,3.95,0,1,0-4-3.94,3.94,3.94,0,0,0,4,3.94"/><path class="cls-3" d="M88.94,43.09a7.22,7.22,0,1,1,7.22-7.22A7.23,7.23,0,0,1,88.94,43.09Zm0-10.43a3.21,3.21,0,1,0,3.22,3.21A3.21,3.21,0,0,0,88.94,32.66ZM69.63,26.83A10.49,10.49,0,1,1,80.12,16.35,10.49,10.49,0,0,1,69.63,26.83Zm0-17a6.48,6.48,0,1,0,6.48,6.48A6.48,6.48,0,0,0,69.63,9.87Z"/></svg>