<svg id="Layer_1" data-name="Layer 1" xmlns="http://www.w3.org/2000/svg" viewBox="0 0 99.92 47.7"><defs><style>.cls-1{fill:#00933f;}.cls-2{fill:none;}.cls-3{fill:#e7372c;}</style></defs><path class="cls-1" d="M36.59,41.55H2.3V37.32H4.83V25.63a14.62,14.62,0,0,1,29.23,0V37.32h2.53ZM25.35,37.32h4.48V25.63a10.39,10.39,0,0,0-20.77,0V37.32H12.9V25.39h4.23V37.32h4V25.39h4.22ZM28.17,8.71H19.32V4.48h8.85Z"/><rect class="cls-2" width="99.92" height="47.7"/><path class="cls-3" d="M85.6,42.49a14.23,14.23,0,0,1-9.7-3.93l-6.68-6.68a10.68,10.68,0,0,1-.29-15.08A10.68,10.68,0,0,1,84,17.09l6.68,6.69a14.12,14.12,0,0,1,4,9.65,9,9,0,0,1-2.5,6.6A9.08,9.08,0,0,1,85.6,42.49ZM76.2,17.64a6.42,6.42,0,0,0-4.57,1.86,6.86,6.86,0,0,0,.29,9.68l6.68,6.68c2.78,2.77,8.34,4,10.85,1.47a5.41,5.41,0,0,0,1.37-3.89,10.31,10.31,0,0,0-2.83-7l-6.68-6.69A7.24,7.24,0,0,0,76.2,17.64Z"/><rect class="cls-3" x="79.14" y="28.24" width="6.59" height="4.06" transform="translate(2.74 67.16) rotate(-45)"/><polygon class="cls-3" points="71.65 5.46 67.89 9.21 67.89 15.88 61 15.88 57.47 19.64 69.77 19.64 71.65 17.76 71.65 5.46"/></svg>