<svg id="Layer_1" data-name="Layer 1" xmlns="http://www.w3.org/2000/svg" viewBox="0 0 99.92 47.7"><defs><style>.cls-1{fill:#00933f;}.cls-2{fill:none;}</style></defs><path class="cls-1" d="M93.44,41.55H59.15V37.32h2.53V25.63a14.62,14.62,0,0,1,29.23,0V37.32h2.53ZM82.21,37.32h4.47V25.63a10.39,10.39,0,0,0-20.77,0V37.32h3.84V25.39H74V37.32h4V25.39h4.23ZM85,8.71H76.17V4.48H85Z"/><path class="cls-1" d="M36.59,41.55H2.3V37.32H4.83V25.63a14.62,14.62,0,0,1,29.23,0V37.32h2.53ZM25.35,37.32h4.48V25.63a10.39,10.39,0,0,0-20.77,0V37.32H12.9V25.39h4.23V37.32h4V25.39h4.22ZM28.17,8.71H19.32V4.48h8.85Z"/><rect class="cls-2" width="99.92" height="47.7"/></svg>