<svg id="Layer_1" data-name="Layer 1" xmlns="http://www.w3.org/2000/svg" viewBox="0 0 99.92 47.7"><defs><style>.cls-1{fill:#00933f;}.cls-2{fill:none;}.cls-3{fill:#006ab5;}</style></defs><path class="cls-1" d="M36.59,41.55H2.3V37.32H4.83V25.63a14.62,14.62,0,0,1,29.23,0V37.32h2.53ZM25.35,37.32h4.48V25.63a10.39,10.39,0,0,0-20.77,0V37.32H12.9V25.39h4.23V37.32h4V25.39h4.22ZM28.17,8.71H19.32V4.48h8.85Z"/><rect class="cls-2" width="99.92" height="47.7"/><path class="cls-3" d="M65.1,41.88a3.95,3.95,0,1,0-3.95-3.94,3.94,3.94,0,0,0,3.95,3.94"/><rect class="cls-3" x="80.92" y="24.78" width="2.86" height="8.74" transform="translate(3.21 66.12) rotate(-44.53)"/><path class="cls-3" d="M68.41,31.92l-3.92-.82,1.44-6.86,3.92.82Zm9.47-15.28-.83-3.92,7.12-1.5L85,15.13Z"/><path class="cls-3" d="M91,15.75a3.95,3.95,0,1,0-4-3.94,3.94,3.94,0,0,0,4,3.94"/><path class="cls-3" d="M88.94,43.09a7.22,7.22,0,1,1,7.22-7.22A7.23,7.23,0,0,1,88.94,43.09Zm0-10.43a3.21,3.21,0,1,0,3.22,3.21A3.21,3.21,0,0,0,88.94,32.66ZM69.63,26.83A10.49,10.49,0,1,1,80.12,16.35,10.49,10.49,0,0,1,69.63,26.83Zm0-17a6.48,6.48,0,1,0,6.48,6.48A6.48,6.48,0,0,0,69.63,9.87Z"/></svg>