<svg xmlns="http://www.w3.org/2000/svg" viewBox="0 0 100.35 47.91"><defs><style>.cls-1{fill:none;}.cls-2{fill:#ccbd00;}</style></defs><g id="Layer_2" data-name="Layer 2"><rect class="cls-1" width="100.35" height="47.91"/><path class="cls-2" d="M49.85,30.63A12.94,12.94,0,1,1,52.6,5.05h0a12.94,12.94,0,0,1-2.75,25.58Zm0-22.7a9.79,9.79,0,0,0-9.52,7.68,9.75,9.75,0,1,0,11.6-7.45h0A9.82,9.82,0,0,0,49.84,7.93Z"/><path class="cls-2" d="M59.11,37.55a9.74,9.74,0,0,0-18.54,0l-3-1a12.92,12.92,0,0,1,24.58,0Z"/><rect class="cls-2" x="44.47" y="16.13" width="10.75" height="3.18"/><rect class="cls-2" x="48.26" y="29.23" width="3.18" height="13.82"/></g></svg>