<svg xmlns="http://www.w3.org/2000/svg" viewBox="0 0 45.18 45.18"><defs><style>.cls-1{fill:#a8a7a7;}.cls-2{fill:none;}</style></defs><g id="Layer_7" data-name="Layer 7"><path class="cls-1" d="M34,7a4.66,4.66,0,1,1-4.66,4.66A4.66,4.66,0,0,1,34,7Zm0,6.63a2,2,0,1,0-2-2A2,2,0,0,0,34,13.62Z"/><rect class="cls-1" x="32.33" y="15.07" width="3.32" height="23.22" transform="translate(67.98 53.36) rotate(180)"/><path class="cls-1" d="M11.19,7a4.66,4.66,0,1,1-4.66,4.66A4.66,4.66,0,0,1,11.19,7Zm0,6.63a2,2,0,1,0-2-2A2,2,0,0,0,11.19,13.62Z"/><rect class="cls-1" x="9.53" y="15.07" width="3.32" height="23.22" transform="translate(22.38 53.36) rotate(180)"/><rect class="cls-1" x="12.57" y="31.92" width="3.32" height="9.41" transform="translate(-22.4 50.86) rotate(-90)"/><rect class="cls-1" x="29.29" y="31.92" width="3.32" height="9.41" transform="translate(-5.68 67.58) rotate(-90)"/><rect class="cls-2" width="45.18" height="45.18"/></g></svg>