<svg id="Layer_1" data-name="Layer 1" xmlns="http://www.w3.org/2000/svg" viewBox="0 0 100.35 47.91"><defs><style>.cls-1{fill:#006ab5;}.cls-2{fill:none;}</style></defs><path class="cls-1" d="M36.87,41.88a3.95,3.95,0,1,0-3.94-3.94,3.94,3.94,0,0,0,3.94,3.94"/><rect class="cls-1" x="52.7" y="24.78" width="2.86" height="8.74" transform="translate(-4.9 46.33) rotate(-44.53)"/><path class="cls-1" d="M40.18,31.92l-3.91-.82,1.44-6.86,3.92.82Zm9.47-15.28-.83-3.92L56,11.22l.83,3.91Z"/><path class="cls-1" d="M62.79,15.75a3.95,3.95,0,1,0-3.95-3.94,3.95,3.95,0,0,0,3.95,3.94"/><path class="cls-1" d="M60.72,43.09a7.22,7.22,0,1,1,7.22-7.22A7.23,7.23,0,0,1,60.72,43.09Zm0-10.43a3.21,3.21,0,1,0,3.22,3.21A3.21,3.21,0,0,0,60.72,32.66ZM41.41,26.83A10.49,10.49,0,1,1,51.9,16.35,10.49,10.49,0,0,1,41.41,26.83Zm0-17a6.48,6.48,0,1,0,6.48,6.48A6.48,6.48,0,0,0,41.41,9.87Z"/><rect class="cls-2" width="100.35" height="47.91"/></svg>