<svg id="Layer_1" data-name="Layer 1" xmlns="http://www.w3.org/2000/svg" viewBox="0 0 99.92 47.7"><defs><style>.cls-1{fill:none;}.cls-2{fill:#006ab5;}.cls-3{fill:#e7372c;}</style></defs><rect class="cls-1" width="99.92" height="47.7"/><path class="cls-2" d="M6.89,41.88A3.95,3.95,0,1,0,3,37.94a3.94,3.94,0,0,0,3.94,3.94"/><rect class="cls-2" x="22.72" y="24.78" width="2.86" height="8.74" transform="translate(-13.5 25.31) rotate(-44.53)"/><path class="cls-2" d="M10.2,31.92,6.29,31.1l1.44-6.86,3.91.82Zm9.47-15.28-.83-3.92L26,11.22l.83,3.91Z"/><path class="cls-2" d="M32.8,15.75a3.95,3.95,0,1,0-3.94-3.94,3.95,3.95,0,0,0,3.94,3.94"/><path class="cls-2" d="M30.74,43.09A7.22,7.22,0,1,1,38,35.87,7.23,7.23,0,0,1,30.74,43.09Zm0-10.43A3.21,3.21,0,1,0,34,35.87,3.21,3.21,0,0,0,30.74,32.66ZM11.43,26.83A10.49,10.49,0,1,1,21.92,16.35,10.49,10.49,0,0,1,11.43,26.83Zm0-17a6.48,6.48,0,1,0,6.48,6.48A6.48,6.48,0,0,0,11.43,9.87Z"/><path class="cls-3" d="M85.6,42.49a14.23,14.23,0,0,1-9.7-3.93l-6.68-6.68a10.68,10.68,0,0,1-.29-15.08A10.68,10.68,0,0,1,84,17.09l6.68,6.69a14.12,14.12,0,0,1,4,9.65,9,9,0,0,1-2.5,6.6A9.08,9.08,0,0,1,85.6,42.49ZM76.2,17.64a6.42,6.42,0,0,0-4.57,1.86,6.86,6.86,0,0,0,.29,9.68l6.68,6.68c2.78,2.77,8.34,4,10.85,1.47a5.41,5.41,0,0,0,1.37-3.89,10.31,10.31,0,0,0-2.83-7l-6.68-6.69A7.24,7.24,0,0,0,76.2,17.64Z"/><rect class="cls-3" x="79.14" y="28.24" width="6.59" height="4.06" transform="translate(2.74 67.16) rotate(-45)"/><polygon class="cls-3" points="71.65 5.46 67.89 9.21 67.89 15.88 61 15.88 57.47 19.64 69.77 19.64 71.65 17.76 71.65 5.46"/></svg>