<svg id="Layer_1" data-name="Layer 1" xmlns="http://www.w3.org/2000/svg" viewBox="0 0 99.92 47.7"><defs><style>.cls-1{fill:none;}.cls-2{fill:#006ab5;}.cls-3{fill:#00933f;}</style></defs><rect class="cls-1" width="99.92" height="47.7"/><path class="cls-2" d="M6.89,41.88A3.95,3.95,0,1,0,3,37.94a3.94,3.94,0,0,0,3.94,3.94"/><rect class="cls-2" x="22.72" y="24.78" width="2.86" height="8.74" transform="translate(-13.5 25.31) rotate(-44.53)"/><path class="cls-2" d="M10.2,31.92,6.29,31.1l1.44-6.86,3.91.82Zm9.47-15.28-.83-3.92L26,11.22l.83,3.91Z"/><path class="cls-2" d="M32.8,15.75a3.95,3.95,0,1,0-3.94-3.94,3.95,3.95,0,0,0,3.94,3.94"/><path class="cls-2" d="M30.74,43.09A7.22,7.22,0,1,1,38,35.87,7.23,7.23,0,0,1,30.74,43.09Zm0-10.43A3.21,3.21,0,1,0,34,35.87,3.21,3.21,0,0,0,30.74,32.66ZM11.43,26.83A10.49,10.49,0,1,1,21.92,16.35,10.49,10.49,0,0,1,11.43,26.83Zm0-17a6.48,6.48,0,1,0,6.48,6.48A6.48,6.48,0,0,0,11.43,9.87Z"/><path class="cls-3" d="M93.44,41.55H59.15V37.32h2.53V25.63a14.62,14.62,0,0,1,29.23,0V37.32h2.53ZM82.21,37.32h4.47V25.63a10.39,10.39,0,0,0-20.77,0V37.32h3.84V25.39H74V37.32h4V25.39h4.23ZM85,8.71H76.17V4.48H85Z"/></svg>