<?xml version="1.0" encoding="utf-8"?>
<!-- Generator: Adobe Illustrator 24.3.0, SVG Export Plug-In . SVG Version: 6.00 Build 0)  -->
<svg version="1.1" id="Layer_1" xmlns="http://www.w3.org/2000/svg" xmlns:xlink="http://www.w3.org/1999/xlink" x="0px" y="0px"
	 viewBox="0 0 70.6 37.2" style="enable-background:new 0 0 70.6 37.2;" xml:space="preserve">
<style type="text/css">
	.st0{fill:none;}
	.st1{fill:#98A9B2;}
</style>
<rect y="0" class="st0" width="70.6" height="37.2"/>
<path class="st1" d="M3.6,36.3H2V28c0-5.3,4.3-9.6,9.6-9.6h49.5c4.4,0,7.9-3.6,7.9-8V2.6H21.3v7.7h-1.6V1.8c0-0.5,0.4-0.8,0.8-0.8
	h49.3c0.5,0,0.8,0.4,0.8,0.8v8.7c0,5.3-4.3,9.6-9.6,9.6H11.6c-4.4,0-8,3.6-8,8C3.6,28.1,3.6,36.3,3.6,36.3z M42.4,29.2H21.2v-1.6
	h21.1L42.4,29.2L42.4,29.2z M11.7,11L3,2.3l1.2-1.2l8.7,8.7L11.7,11z"/>
</svg>
