<svg id="Layer_1" data-name="Layer 1" xmlns="http://www.w3.org/2000/svg" viewBox="0 0 99.92 47.7"><defs><style>.cls-1{fill:none;}.cls-2{fill:#006ab5;}</style></defs><rect class="cls-1" width="99.92" height="47.7"/><path class="cls-2" d="M6.89,41.88A3.95,3.95,0,1,0,3,37.94a3.94,3.94,0,0,0,3.94,3.94"/><rect class="cls-2" x="22.72" y="24.78" width="2.86" height="8.74" transform="translate(-13.5 25.31) rotate(-44.53)"/><path class="cls-2" d="M10.2,31.92,6.29,31.1l1.44-6.86,3.91.82Zm9.47-15.28-.83-3.92L26,11.22l.83,3.91Z"/><path class="cls-2" d="M32.8,15.75a3.95,3.95,0,1,0-3.94-3.94,3.95,3.95,0,0,0,3.94,3.94"/><path class="cls-2" d="M30.74,43.09A7.22,7.22,0,1,1,38,35.87,7.23,7.23,0,0,1,30.74,43.09Zm0-10.43A3.21,3.21,0,1,0,34,35.87,3.21,3.21,0,0,0,30.74,32.66ZM11.43,26.83A10.49,10.49,0,1,1,21.92,16.35,10.49,10.49,0,0,1,11.43,26.83Zm0-17a6.48,6.48,0,1,0,6.48,6.48A6.48,6.48,0,0,0,11.43,9.87Z"/><path class="cls-2" d="M65.1,41.88a3.95,3.95,0,1,0-3.95-3.94,3.94,3.94,0,0,0,3.95,3.94"/><rect class="cls-2" x="80.92" y="24.78" width="2.86" height="8.74" transform="translate(3.21 66.12) rotate(-44.53)"/><path class="cls-2" d="M68.41,31.92l-3.92-.82,1.44-6.86,3.92.82Zm9.47-15.28-.83-3.92,7.12-1.5L85,15.13Z"/><path class="cls-2" d="M91,15.75a3.95,3.95,0,1,0-4-3.94,3.94,3.94,0,0,0,4,3.94"/><path class="cls-2" d="M88.94,43.09a7.22,7.22,0,1,1,7.22-7.22A7.23,7.23,0,0,1,88.94,43.09Zm0-10.43a3.21,3.21,0,1,0,3.22,3.21A3.21,3.21,0,0,0,88.94,32.66ZM69.63,26.83A10.49,10.49,0,1,1,80.12,16.35,10.49,10.49,0,0,1,69.63,26.83Zm0-17a6.48,6.48,0,1,0,6.48,6.48A6.48,6.48,0,0,0,69.63,9.87Z"/></svg>