<svg xmlns="http://www.w3.org/2000/svg" viewBox="0 0 100.35 47.91"><defs><style>.cls-1{fill:none;}.cls-2{fill:#298d9e;}</style></defs><g id="Layer_2" data-name="Layer 2"><rect class="cls-1" width="100.35" height="47.91"/><path class="cls-2" d="M55.39,36.42H44.31a6.93,6.93,0,0,1-6.93-6.92V18.41a6.94,6.94,0,0,1,6.93-6.92H55.39a6.94,6.94,0,0,1,6.93,6.92V29.5A6.93,6.93,0,0,1,55.39,36.42ZM44.31,14.82a3.6,3.6,0,0,0-3.59,3.59V29.5a3.59,3.59,0,0,0,3.59,3.59H55.39A3.59,3.59,0,0,0,59,29.5V18.41a3.6,3.6,0,0,0-3.59-3.59Z"/><rect class="cls-2" x="43.55" y="5.67" width="3.34" height="7.48"/><rect class="cls-2" x="52.81" y="5.67" width="3.34" height="7.48"/><rect class="cls-2" x="43.55" y="34.75" width="3.34" height="7.48"/><rect class="cls-2" x="52.81" y="34.75" width="3.34" height="7.48"/><rect class="cls-2" x="60.65" y="17.65" width="7.48" height="3.34"/><rect class="cls-2" x="60.65" y="26.92" width="7.48" height="3.34"/><rect class="cls-2" x="31.57" y="17.65" width="7.48" height="3.34"/><rect class="cls-2" x="31.57" y="26.92" width="7.48" height="3.34"/></g></svg>