<svg xmlns="http://www.w3.org/2000/svg" viewBox="0 0 45.18 45.18"><defs><style>.cls-1{fill:#a8a7a7;}.cls-2{fill:none;}</style></defs><g id="Layer_7" data-name="Layer 7"><circle class="cls-1" cx="34.52" cy="29.01" r="4.08"/><path class="cls-1" d="M37,27.39l-3.07-1c0-.16.11-.32.17-.48a6.26,6.26,0,0,0,.24-.74A11.94,11.94,0,0,0,19.89,10.92l-.74-3.15A15.22,15.22,0,0,1,37.5,25.84,10.07,10.07,0,0,1,37.14,27Z"/><circle class="cls-1" cx="10.66" cy="16.17" r="4.08"/><path class="cls-1" d="M22.45,37.83a14.57,14.57,0,0,1-3.1-.33A15.29,15.29,0,0,1,7.68,19.34,7.72,7.72,0,0,1,8,18.17c.05-.12.09-.25.14-.38l3.07,1c-.05.16-.11.32-.17.47a6.37,6.37,0,0,0-.24.75A12,12,0,0,0,25.29,34.26L26,37.41A15.82,15.82,0,0,1,22.45,37.83Z"/><rect class="cls-2" width="45.18" height="45.18"/></g></svg>