<svg xmlns="http://www.w3.org/2000/svg" viewBox="0 0 100.35 47.91"><defs><style>.cls-1{fill:none;}.cls-2{fill:#a965a6;}</style></defs><g id="Layer_2" data-name="Layer 2"><rect class="cls-1" width="100.35" height="47.91"/><path class="cls-2" d="M50.18,28.32a5.06,5.06,0,1,1,5-5.05A5.06,5.06,0,0,1,50.18,28.32Zm0-7.19a2.14,2.14,0,1,0,2.13,2.14A2.14,2.14,0,0,0,50.18,21.13Z"/><rect class="cls-2" x="48.37" y="5.64" width="3.61" height="10.19"/><rect class="cls-2" x="37.51" y="24.44" width="3.61" height="10.19" transform="translate(45.24 -19.28) rotate(60)"/><rect class="cls-2" x="59.23" y="24.44" width="3.61" height="10.19" transform="translate(4.94 67.62) rotate(-60)"/><path class="cls-2" d="M50.18,42.27a1.71,1.71,0,0,1-1.48-.85l-4-6.85,2.95-1.7,2.49,4.29,2.48-4.29,3,1.7-4,6.85A1.69,1.69,0,0,1,50.18,42.27Z"/><path class="cls-2" d="M62.68,22.31l-3-1.7,2.48-4.29h-5V12.91h7.91a1.7,1.7,0,0,1,1.48,2.55Z"/><path class="cls-2" d="M37.67,22.31l-4-6.85a1.7,1.7,0,0,1,1.48-2.55H43.1v3.41h-5l2.48,4.29Z"/></g></svg>