<svg id="Layer_1" data-name="Layer 1" xmlns="http://www.w3.org/2000/svg" viewBox="0 0 100.35 47.91"><defs><style>.cls-1{fill:none;}.cls-2{fill:#fff;}</style></defs><rect class="cls-1" width="100.35" height="47.91"/><path class="cls-2" d="M32.87,17.72l3.61,2.09a13.86,13.86,0,0,0-.43,1.8,14.22,14.22,0,0,0,1.18,8.75,14.62,14.62,0,0,0,3,4.18,14.44,14.44,0,0,0,6.85,3.64v4.16a18,18,0,0,1-3.92-1.11,18.44,18.44,0,0,1-9.65-9.08,18.48,18.48,0,0,1-1.61-10.81,18.87,18.87,0,0,1,.93-3.62m34.61,0a19.29,19.29,0,0,1,.86,3.17A18.67,18.67,0,0,1,68.41,27,18.49,18.49,0,0,1,57.15,41.23a18,18,0,0,1-3.93,1.11V38.18a14.25,14.25,0,0,0,2.38-.74,14.37,14.37,0,0,0,7.52-7.08,14.17,14.17,0,0,0,1.24-4,14.38,14.38,0,0,0,0-4.72,13.93,13.93,0,0,0-.45-1.8ZM35.92,12.44c.33-.41.69-.8,1.06-1.18A18.42,18.42,0,0,1,47.37,5.91,18.17,18.17,0,0,1,49.7,5.7h.71A20.1,20.1,0,0,1,53,5.91a18.11,18.11,0,0,1,5,1.51,18.54,18.54,0,0,1,4.45,2.93,19,19,0,0,1,2,2.09l-3.61,2.08c-.36-.39-.74-.76-1.13-1.12a15,15,0,0,0-3.46-2.27A14.25,14.25,0,0,0,52.36,10a14.85,14.85,0,0,0-2-.17H50A15.14,15.14,0,0,0,48,10a14.29,14.29,0,0,0-3.87,1.17,14.46,14.46,0,0,0-4.58,3.39Z"/></svg>