<svg id="Layer_1" data-name="Layer 1" xmlns="http://www.w3.org/2000/svg" viewBox="0 0 99.92 47.7"><defs><style>.cls-1{fill:#fff;}.cls-2{fill:none;}.cls-3{fill:#e7372c;}</style></defs><path class="cls-1" d="M2.21,17.72l3.61,2.09a12.43,12.43,0,0,0-.44,1.8,14.66,14.66,0,0,0-.07,4.72,14.21,14.21,0,0,0,1.26,4,14.36,14.36,0,0,0,9.89,7.82v4.16a18.12,18.12,0,0,1-3.93-1.11,18.54,18.54,0,0,1-9.65-9.08A18.58,18.58,0,0,1,1.27,27a18.46,18.46,0,0,1,.94-9.23m34.6,0A18.63,18.63,0,0,1,37.75,27,18.47,18.47,0,0,1,26.48,41.23a17.81,17.81,0,0,1-3.93,1.11V38.18a14,14,0,0,0,2.38-.74,14.37,14.37,0,0,0,7.52-7.08,14.19,14.19,0,0,0,1.25-4,14.38,14.38,0,0,0-.06-4.72,15.75,15.75,0,0,0-.44-1.8ZM5.25,12.44c.33-.41.69-.8,1.06-1.18A18.42,18.42,0,0,1,16.7,5.91,18.34,18.34,0,0,1,19,5.7h.72a19.79,19.79,0,0,1,2.56.22,18.11,18.11,0,0,1,5,1.51,18.34,18.34,0,0,1,4.45,2.93,18.13,18.13,0,0,1,2,2.09l-3.61,2.08c-.36-.39-.73-.76-1.13-1.12a15,15,0,0,0-3.46-2.27A14.25,14.25,0,0,0,21.69,10a14.71,14.71,0,0,0-2-.17h-.37a15,15,0,0,0-2,.17,14.08,14.08,0,0,0-3.87,1.17,14.61,14.61,0,0,0-4.59,3.39Z"/><rect class="cls-2" width="99.92" height="47.7"/><path class="cls-3" d="M85.6,42.49a14.23,14.23,0,0,1-9.7-3.93l-6.68-6.68a10.68,10.68,0,0,1-.29-15.08A10.68,10.68,0,0,1,84,17.09l6.68,6.69a14.12,14.12,0,0,1,4,9.65,9,9,0,0,1-2.5,6.6A9.08,9.08,0,0,1,85.6,42.49ZM76.2,17.64a6.42,6.42,0,0,0-4.57,1.86,6.86,6.86,0,0,0,.29,9.68l6.68,6.68c2.78,2.77,8.34,4,10.85,1.47a5.41,5.41,0,0,0,1.37-3.89,10.31,10.31,0,0,0-2.83-7l-6.68-6.69A7.24,7.24,0,0,0,76.2,17.64Z"/><rect class="cls-3" x="79.14" y="28.24" width="6.59" height="4.06" transform="translate(2.74 67.16) rotate(-45)"/><polygon class="cls-3" points="71.65 5.46 67.89 9.21 67.89 15.88 61 15.88 57.47 19.64 69.77 19.64 71.65 17.76 71.65 5.46"/></svg>