<svg id="Layer_1" data-name="Layer 1" xmlns="http://www.w3.org/2000/svg" viewBox="0 0 99.92 47.7"><defs><style>.cls-1{fill:#fff;}.cls-2{fill:none;}.cls-3{fill:#00933f;}</style></defs><path class="cls-1" d="M2.21,17.72l3.61,2.09a12.43,12.43,0,0,0-.44,1.8,14.66,14.66,0,0,0-.07,4.72,14.21,14.21,0,0,0,1.26,4,14.36,14.36,0,0,0,9.89,7.82v4.16a18.12,18.12,0,0,1-3.93-1.11,18.54,18.54,0,0,1-9.65-9.08A18.58,18.58,0,0,1,1.27,27a18.46,18.46,0,0,1,.94-9.23m34.6,0A18.63,18.63,0,0,1,37.75,27,18.47,18.47,0,0,1,26.48,41.23a17.81,17.81,0,0,1-3.93,1.11V38.18a14,14,0,0,0,2.38-.74,14.37,14.37,0,0,0,7.52-7.08,14.19,14.19,0,0,0,1.25-4,14.38,14.38,0,0,0-.06-4.72,15.75,15.75,0,0,0-.44-1.8ZM5.25,12.44c.33-.41.69-.8,1.06-1.18A18.42,18.42,0,0,1,16.7,5.91,18.34,18.34,0,0,1,19,5.7h.72a19.79,19.79,0,0,1,2.56.22,18.11,18.11,0,0,1,5,1.51,18.34,18.34,0,0,1,4.45,2.93,18.13,18.13,0,0,1,2,2.09l-3.61,2.08c-.36-.39-.73-.76-1.13-1.12a15,15,0,0,0-3.46-2.27A14.25,14.25,0,0,0,21.69,10a14.71,14.71,0,0,0-2-.17h-.37a15,15,0,0,0-2,.17,14.08,14.08,0,0,0-3.87,1.17,14.61,14.61,0,0,0-4.59,3.39Z"/><rect class="cls-2" width="99.92" height="47.7"/><path class="cls-3" d="M93.44,41.55H59.15V37.32h2.53V25.63a14.62,14.62,0,0,1,29.23,0V37.32h2.53ZM82.21,37.32h4.47V25.63a10.39,10.39,0,0,0-20.77,0V37.32h3.84V25.39H74V37.32h4V25.39h4.23ZM85,8.71H76.17V4.48H85Z"/></svg>