<svg id="Layer_1" data-name="Layer 1" xmlns="http://www.w3.org/2000/svg" viewBox="0 0 99.92 47.7"><defs><style>.cls-1{fill:#fff;}.cls-2{fill:none;}</style></defs><path class="cls-1" d="M2.21,17.72l3.61,2.09a12.43,12.43,0,0,0-.44,1.8,14.66,14.66,0,0,0-.07,4.72,14.21,14.21,0,0,0,1.26,4,14.36,14.36,0,0,0,9.89,7.82v4.16a18.12,18.12,0,0,1-3.93-1.11,18.54,18.54,0,0,1-9.65-9.08A18.58,18.58,0,0,1,1.27,27a18.46,18.46,0,0,1,.94-9.23m34.6,0A18.63,18.63,0,0,1,37.75,27,18.47,18.47,0,0,1,26.48,41.23a17.81,17.81,0,0,1-3.93,1.11V38.18a14,14,0,0,0,2.38-.74,14.37,14.37,0,0,0,7.52-7.08,14.19,14.19,0,0,0,1.25-4,14.38,14.38,0,0,0-.06-4.72,15.75,15.75,0,0,0-.44-1.8ZM5.25,12.44c.33-.41.69-.8,1.06-1.18A18.42,18.42,0,0,1,16.7,5.91,18.34,18.34,0,0,1,19,5.7h.72a19.79,19.79,0,0,1,2.56.22,18.11,18.11,0,0,1,5,1.51,18.34,18.34,0,0,1,4.45,2.93,18.13,18.13,0,0,1,2,2.09l-3.61,2.08c-.36-.39-.73-.76-1.13-1.12a15,15,0,0,0-3.46-2.27A14.25,14.25,0,0,0,21.69,10a14.71,14.71,0,0,0-2-.17h-.37a15,15,0,0,0-2,.17,14.08,14.08,0,0,0-3.87,1.17,14.61,14.61,0,0,0-4.59,3.39Z"/><path class="cls-1" d="M58.57,17.72l3.61,2.09a13.9,13.9,0,0,0-.44,1.8,14.38,14.38,0,0,0-.06,4.72,14.19,14.19,0,0,0,1.25,4,14.41,14.41,0,0,0,9.89,7.82v4.16a17.88,17.88,0,0,1-3.92-1.11,18.53,18.53,0,0,1-5.76-3.73,18.74,18.74,0,0,1-3.9-5.35,18.62,18.62,0,0,1-.67-14.43m34.6,0A17.49,17.49,0,0,1,94,20.89,18.46,18.46,0,0,1,82.84,41.23a17.88,17.88,0,0,1-3.92,1.11V38.18a13.86,13.86,0,0,0,2.37-.74,14.27,14.27,0,0,0,4.48-2.9A14.34,14.34,0,0,0,90,21.61a13.9,13.9,0,0,0-.44-1.8ZM61.61,12.44c.34-.41.69-.8,1.06-1.18a18.41,18.41,0,0,1,10.4-5.35A18.17,18.17,0,0,1,75.4,5.7h.71a20.1,20.1,0,0,1,2.57.22,18.21,18.21,0,0,1,5,1.51,18.48,18.48,0,0,1,4.44,2.93,18.13,18.13,0,0,1,2,2.09l-3.61,2.08a14.94,14.94,0,0,0-1.13-1.12,14.72,14.72,0,0,0-3.45-2.27A14.25,14.25,0,0,0,78.06,10a14.85,14.85,0,0,0-2-.17h-.38a15.13,15.13,0,0,0-2,.17,14.19,14.19,0,0,0-3.87,1.17,14.61,14.61,0,0,0-4.59,3.39Z"/><rect class="cls-2" width="99.92" height="47.7"/></svg>