<svg width="35" height="32" viewBox="0 0 35 32" fill="none" xmlns="http://www.w3.org/2000/svg">
<path d="M25.706 20.1185C24.8819 20.1185 24.0762 19.8742 23.391 19.4163C22.7057 18.9584 22.1716 18.3076 21.8563 17.5462C21.5409 16.7848 21.4583 15.947 21.6191 15.1387C21.7799 14.3304 22.1768 13.5879 22.7595 13.0051C23.3423 12.4224 24.0848 12.0255 24.8931 11.8647C25.7014 11.704 26.5392 11.7865 27.3006 12.1019C28.062 12.4172 28.7128 12.9513 29.1707 13.6366C29.6286 14.3218 29.8729 15.1275 29.8729 15.9516C29.8701 17.0559 29.4302 18.1141 28.6494 18.895C27.8685 19.6758 26.8103 20.1157 25.706 20.1185ZM25.706 14.4665C25.4123 14.4665 25.1251 14.5536 24.8809 14.7168C24.6367 14.8799 24.4463 15.1119 24.3339 15.3833C24.2215 15.6546 24.1921 15.9533 24.2494 16.2413C24.3067 16.5294 24.4482 16.7941 24.6559 17.0018C24.8636 17.2095 25.1282 17.3509 25.4163 17.4082C25.7044 17.4655 26.003 17.4361 26.2743 17.3237C26.5457 17.2113 26.7777 17.0209 26.9409 16.7767C27.104 16.5325 27.1911 16.2453 27.1911 15.9516C27.1883 15.5586 27.031 15.1825 26.7531 14.9045C26.4752 14.6266 26.099 14.4693 25.706 14.4665Z" fill="#99A9B3"/>
<path d="M19.4879 32.0001H18.1523V0.0428467H19.4879C27.6829 0.0428467 34.3393 7.21212 34.3393 16.0695C34.3393 24.927 27.6829 32.0001 19.4879 32.0001ZM20.8341 2.81012V29.2114C26.9136 28.4742 31.6575 22.8007 31.6575 15.9947C31.6575 9.18874 26.9136 3.56872 20.8341 2.81012Z" fill="#99A9B3"/>
<path d="M22.8753 14.6799H19.4883V17.3617H22.8753V14.6799Z" fill="#99A9B3"/>
<path d="M8.63282 20.1187C7.80913 20.1165 7.00455 19.8704 6.32071 19.4112C5.63687 18.9521 5.10444 18.3005 4.7907 17.5389C4.47695 16.7774 4.39595 15.9399 4.55794 15.1323C4.71992 14.3247 5.11763 13.5832 5.70081 13.0015C6.28399 12.4198 7.02648 12.024 7.8345 11.8641C8.64251 11.7042 9.47979 11.7873 10.2406 12.103C11.0014 12.4187 11.6515 12.9528 12.1089 13.6378C12.5663 14.3228 12.8104 15.128 12.8104 15.9517C12.8076 17.0578 12.3662 18.1177 11.5831 18.8988C10.7999 19.68 9.73895 20.1187 8.63282 20.1187ZM8.63282 14.4666C8.33955 14.4687 8.05347 14.5576 7.81065 14.722C7.56783 14.8865 7.37914 15.1192 7.26837 15.3907C7.1576 15.6623 7.12971 15.9606 7.18821 16.2479C7.24672 16.5353 7.389 16.799 7.59712 17.0056C7.80524 17.2122 8.06988 17.3526 8.35767 17.4091C8.64547 17.4655 8.94353 17.4355 9.21428 17.3228C9.48503 17.21 9.71635 17.0197 9.87907 16.7757C10.0418 16.5317 10.1286 16.245 10.1286 15.9517C10.1286 15.7558 10.0899 15.5618 10.0146 15.3809C9.93928 15.2 9.82893 15.0358 9.68989 14.8978C9.55084 14.7597 9.38586 14.6505 9.20444 14.5765C9.02302 14.5025 8.82875 14.4652 8.63282 14.4666Z" fill="#99A9B3"/>
<path d="M16.187 32H14.8514C6.65642 32 0 24.8307 0 16.0267C0 7.2227 6.65642 0 14.8514 0H16.187V32ZM13.5052 2.81001C7.4257 3.53656 2.6818 9.22069 2.6818 16.0267C2.6818 22.8327 7.4257 28.5061 13.5052 29.2113V2.81001Z" fill="#99A9B3"/>
<path d="M14.8499 14.6799H11.4629V17.3617H14.8499V14.6799Z" fill="#99A9B3"/>
</svg>
