<svg width="33" height="32" viewBox="0 0 33 32" fill="none" xmlns="http://www.w3.org/2000/svg">
<path d="M18.5934 2.97998C19.5543 3.15747 20.4979 3.41846 21.4134 3.75998C24.6506 4.98913 27.423 7.19867 29.3434 10.08C30.4343 11.7409 31.2199 13.5831 31.6634 15.52C32.1194 17.5246 32.1974 19.5967 31.8934 21.63C31.7076 22.8337 31.3925 24.0139 30.9534 25.15L27.7534 23.25C27.9948 22.5481 28.169 21.8248 28.2734 21.09C28.5123 19.5065 28.4546 17.8924 28.1034 16.33C27.6294 14.2627 26.6506 12.3451 25.2546 10.7485C23.8586 9.15179 22.0889 7.92579 20.1034 7.17998C19.5879 6.98533 19.0601 6.82498 18.5234 6.69998L18.5934 2.97998Z" fill="#99A9B3"/>
<path d="M0.974416 24.7399C0.814416 24.2999 0.674416 23.8499 0.554416 23.3899C-0.364603 19.9413 -0.136449 16.2874 1.20442 12.9799C1.46568 12.3354 1.76624 11.7076 2.10442 11.0999L2.41442 10.5599C2.81511 9.90487 3.26296 9.27989 3.75442 8.6899C4.74486 7.48396 5.90335 6.4265 7.19442 5.5499C8.51086 4.65825 9.94899 3.96108 11.4644 3.4799C12.2959 3.22509 13.1448 3.03125 14.0044 2.8999L13.9444 6.6199C12.262 6.96267 10.6665 7.64305 9.25442 8.6199C8.25424 9.30381 7.35541 10.1252 6.58442 11.0599C6.22012 11.5246 5.8861 12.0123 5.58442 12.5199L5.40442 12.7999C5.10852 13.3184 4.84793 13.8563 4.62442 14.4099C4.15801 15.5245 3.85164 16.6995 3.71442 17.8999C3.55713 19.5832 3.72691 21.2811 4.21442 22.8999L0.974416 24.7399Z" fill="#99A9B3"/>
<path d="M14.3044 0H10.7344V10.32H14.3044V0Z" fill="#99A9B3"/>
<path d="M21.7243 0H18.1543V10.32H21.7243V0Z" fill="#99A9B3"/>
<path d="M23.463 27.6997H8.54297V31.8797H23.463V27.6997Z" fill="#99A9B3"/>
</svg>
