<svg width="30" height="32" viewBox="0 0 30 32" fill="none" xmlns="http://www.w3.org/2000/svg">
<path d="M14.7498 0C15.6715 0 16.5725 0.273304 17.3388 0.785352C18.1051 1.2974 18.7024 2.02519 19.0551 2.8767C19.4078 3.7282 19.5001 4.66517 19.3203 5.56912C19.1405 6.47307 18.6967 7.3034 18.045 7.95512C17.3932 8.60683 16.5629 9.05065 15.659 9.23046C14.755 9.41027 13.818 9.31798 12.9665 8.96528C12.115 8.61257 11.3872 8.01529 10.8752 7.24896C10.3631 6.48262 10.0898 5.58166 10.0898 4.66C10.0898 4.04804 10.2104 3.44207 10.4446 2.8767C10.6788 2.31132 11.022 1.7976 11.4547 1.36488C12.3286 0.490963 13.5139 0 14.7498 0ZM14.7498 6.62C15.1454 6.62 15.5321 6.5027 15.861 6.28294C16.1899 6.06318 16.4462 5.75082 16.5976 5.38537C16.749 5.01991 16.7886 4.61778 16.7114 4.22982C16.6342 3.84186 16.4438 3.48549 16.1641 3.20579C15.8844 2.92608 15.528 2.7356 15.14 2.65843C14.7521 2.58126 14.3499 2.62087 13.9845 2.77224C13.619 2.92362 13.3067 3.17996 13.0869 3.50886C12.8671 3.83776 12.7498 4.22444 12.7498 4.62C12.7498 5.15043 12.9606 5.65914 13.3356 6.03421C13.7107 6.40929 14.2194 6.62 14.7498 6.62Z" fill="#99A9B3"/>
<path d="M13.0902 31.96H16.4102L16.4102 8.07996H13.0902L13.0902 31.96Z" fill="#99A9B3"/>
<path d="M28.5409 7.10966C29.1927 7.76136 29.6365 8.59169 29.8164 9.49565C29.9962 10.3996 29.9039 11.3366 29.5513 12.1881C29.1986 13.0396 28.6013 13.7675 27.8349 14.2795C27.0686 14.7916 26.1676 15.0649 25.2459 15.0649C24.3243 15.0649 23.4233 14.7916 22.6569 14.2795C21.8906 13.7675 21.2933 13.0396 20.9406 12.1881C20.5879 11.3366 20.4957 10.3996 20.6755 9.49565C20.8553 8.59169 21.2992 7.76136 21.9509 7.10966C22.8261 6.23826 24.0109 5.74902 25.2459 5.74902C26.481 5.74902 27.6657 6.23826 28.5409 7.10966ZM23.8509 11.7897C24.1279 12.0762 24.4841 12.2734 24.8738 12.3561C25.2636 12.4388 25.6692 12.4032 26.0386 12.2539C26.408 12.1045 26.7244 11.8482 26.9472 11.5179C27.1699 11.1875 27.289 10.7981 27.289 10.3997C27.289 10.0012 27.1699 9.61183 26.9472 9.28147C26.7244 8.95111 26.408 8.69482 26.0386 8.54547C25.6692 8.39612 25.2636 8.36051 24.8738 8.44322C24.4841 8.52592 24.1279 8.72317 23.8509 9.00966C23.4905 9.38259 23.289 9.88099 23.289 10.3997C23.289 10.9183 23.4905 11.4167 23.8509 11.7897Z" fill="#99A9B3"/>
<path d="M14.1133 19.1793L16.4609 21.5269L24.0058 13.982L21.6582 11.6344L14.1133 19.1793Z" fill="#99A9B3"/>
<path d="M7.94 7.11C8.58976 7.76054 9.03208 8.5891 9.21106 9.49096C9.39003 10.3928 9.29762 11.3275 8.94551 12.1768C8.5934 13.0262 7.9974 13.7521 7.23283 14.2628C6.46826 14.7735 5.56945 15.0461 4.65 15.0461C3.73055 15.0461 2.83174 14.7735 2.06718 14.2628C1.30261 13.7521 0.706601 13.0262 0.354491 12.1768C0.00238129 11.3275 -0.0900267 10.3928 0.0889467 9.49096C0.26792 8.5891 0.710241 7.76054 1.36 7.11C1.79187 6.67762 2.30472 6.33461 2.86925 6.10058C3.43377 5.86655 4.03889 5.74609 4.65 5.74609C5.26111 5.74609 5.86623 5.86655 6.43076 6.10058C6.99528 6.33461 7.50814 6.67762 7.94 7.11ZM6.04 9.01C5.76308 8.72351 5.40689 8.52626 5.01711 8.44356C4.62733 8.36085 4.22173 8.39646 3.85233 8.54581C3.48292 8.69516 3.16655 8.95145 2.94377 9.28181C2.721 9.61217 2.60198 10.0015 2.60198 10.4C2.60198 10.7985 2.721 11.1878 2.94377 11.5182C3.16655 11.8486 3.48292 12.1048 3.85233 12.2542C4.22173 12.4035 4.62733 12.4391 5.01711 12.3564C5.40689 12.2737 5.76308 12.0765 6.04 11.79C6.40048 11.4171 6.60198 10.9187 6.60198 10.4C6.60198 9.88133 6.40048 9.38293 6.04 9.01Z" fill="#99A9B3"/>
<path d="M8.24994 11.6461L5.90234 13.9937L13.4472 21.5385L15.7948 19.1909L8.24994 11.6461Z" fill="#99A9B3"/>
</svg>
