<svg width="32" height="32" viewBox="0 0 32 32" fill="none" xmlns="http://www.w3.org/2000/svg">
<path d="M10.2927 16.4623C10.2927 17.1479 10.0894 17.8182 9.70847 18.3882C9.32755 18.9583 8.78613 19.4027 8.15268 19.6651C7.51923 19.9274 6.8222 19.9961 6.14973 19.8623C5.47726 19.7286 4.85956 19.3984 4.37474 18.9136C3.88992 18.4288 3.55975 17.8111 3.42599 17.1386C3.29223 16.4661 3.36088 15.7691 3.62326 15.1356C3.88564 14.5022 4.32998 13.9608 4.90007 13.5798C5.47016 13.1989 6.1404 12.9956 6.82604 12.9956C7.74474 12.998 8.62514 13.3639 9.27475 14.0136C9.92437 14.6632 10.2904 15.5436 10.2927 16.4623ZM5.59049 16.4623C5.59049 16.7066 5.66295 16.9455 5.79872 17.1487C5.93448 17.3519 6.12745 17.5103 6.35322 17.6038C6.57898 17.6973 6.82741 17.7218 7.06709 17.6741C7.30676 17.6264 7.52692 17.5087 7.69971 17.3359C7.87251 17.1631 7.99018 16.943 8.03786 16.7033C8.08553 16.4636 8.06106 16.2152 7.96755 15.9894C7.87403 15.7637 7.71567 15.5707 7.51248 15.4349C7.30929 15.2992 7.07041 15.2267 6.82604 15.2267C6.66379 15.2267 6.50312 15.2587 6.35322 15.3208C6.20331 15.3829 6.0671 15.4739 5.95237 15.5886C5.83764 15.7033 5.74663 15.8395 5.68454 15.9894C5.62245 16.1393 5.59049 16.3 5.59049 16.4623Z" fill="#99A9B3"/>
<path d="M28.6404 16.4623C28.6404 17.1479 28.437 17.8182 28.0561 18.3882C27.6752 18.9583 27.1338 19.4027 26.5003 19.6651C25.8669 19.9274 25.1699 19.9961 24.4974 19.8623C23.8249 19.7286 23.2072 19.3984 22.7224 18.9136C22.2376 18.4288 21.9074 17.8111 21.7736 17.1386C21.6399 16.4661 21.7085 15.7691 21.9709 15.1356C22.2333 14.5022 22.6776 13.9608 23.2477 13.5798C23.8178 13.1989 24.4881 12.9956 25.1737 12.9956C26.0924 12.998 26.9728 13.3639 27.6224 14.0136C28.272 14.6632 28.638 15.5436 28.6404 16.4623ZM23.9381 16.4623C23.9381 16.7066 24.0106 16.9455 24.1464 17.1487C24.2821 17.3519 24.4751 17.5103 24.7009 17.6038C24.9266 17.6973 25.1751 17.7218 25.4147 17.6741C25.6544 17.6264 25.8746 17.5087 26.0474 17.3359C26.2202 17.1631 26.3378 16.943 26.3855 16.7033C26.4332 16.4636 26.4087 16.2152 26.3152 15.9894C26.2217 15.7637 26.0633 15.5707 25.8601 15.4349C25.657 15.2992 25.4181 15.2267 25.1737 15.2267C25.0114 15.2267 24.8508 15.2587 24.7009 15.3208C24.551 15.3829 24.4148 15.4739 24.3 15.5886C24.1853 15.7033 24.0943 15.8395 24.0322 15.9894C23.9701 16.1393 23.9381 16.3 23.9381 16.4623Z" fill="#99A9B3"/>
<path d="M19.2366 11.2978C18.6434 10.9541 18.1654 10.4422 17.863 9.82682C17.5607 9.21146 17.4477 8.52027 17.5381 7.84065C17.6286 7.16103 17.9186 6.52351 18.3714 6.00869C18.8242 5.49388 19.4195 5.12489 20.082 4.94839C20.7445 4.77188 21.4445 4.79579 22.0934 5.01709C22.7423 5.23839 23.3111 5.64714 23.7277 6.19165C24.1443 6.73617 24.3901 7.39199 24.434 8.0762C24.4779 8.76041 24.318 9.44227 23.9744 10.0356C23.5119 10.8295 22.7538 11.408 21.866 11.6445C20.9782 11.881 20.0328 11.7564 19.2366 11.2978ZM21.5921 7.22669C21.3081 7.06166 20.9701 7.01625 20.6525 7.10043C20.335 7.18461 20.0638 7.3915 19.8988 7.67557C19.7338 7.95965 19.6884 8.29765 19.7726 8.61521C19.8567 8.93277 20.0636 9.20388 20.3477 9.36891C20.4884 9.45062 20.6437 9.50382 20.805 9.52549C20.9662 9.54715 21.1301 9.53685 21.2873 9.49516C21.4446 9.45348 21.5921 9.38123 21.7214 9.28255C21.8507 9.18387 21.9593 9.06068 22.041 8.92002C22.1227 8.77936 22.176 8.62398 22.1976 8.46276C22.2193 8.30154 22.209 8.13762 22.1673 7.98038C22.1256 7.82314 22.0534 7.67565 21.9547 7.54633C21.856 7.41701 21.7328 7.3084 21.5921 7.22669Z" fill="#99A9B3"/>
<path d="M10.0608 27.1823C9.46757 26.8386 8.98957 26.3267 8.68725 25.7113C8.38493 25.096 8.27187 24.4048 8.36236 23.7252C8.45286 23.0456 8.74284 22.408 9.19564 21.8932C9.64845 21.3784 10.2437 21.0094 10.9063 20.8329C11.5688 20.6564 12.2687 20.6803 12.9176 20.9016C13.5666 21.1229 14.1353 21.5317 14.5519 22.0762C14.9685 22.6207 15.2143 23.2765 15.2582 23.9607C15.3022 24.6449 15.1422 25.3268 14.7986 25.9201C14.3361 26.714 13.578 27.2925 12.6902 27.529C11.8024 27.7655 10.857 27.6409 10.0608 27.1823ZM12.4164 23.1112C12.2047 22.9893 11.9616 22.9329 11.7178 22.9491C11.4741 22.9654 11.2406 23.0535 11.0469 23.2024C10.8532 23.3512 10.708 23.5542 10.6296 23.7856C10.5513 24.0169 10.5432 24.2663 10.6066 24.5023C10.6699 24.7382 10.8017 24.9501 10.9855 25.1111C11.1692 25.2721 11.3965 25.3751 11.6387 25.407C11.8809 25.4388 12.1271 25.3982 12.3462 25.2902C12.5653 25.1822 12.7475 25.0116 12.8697 24.8001C12.951 24.6595 13.0037 24.5042 13.0249 24.3432C13.0461 24.1821 13.0353 24.0185 12.9932 23.8617C12.9511 23.7048 12.8785 23.5578 12.7795 23.429C12.6805 23.3002 12.5571 23.1922 12.4164 23.1112Z" fill="#99A9B3"/>
<path d="M13.5294 10.8537C12.9355 11.1959 12.2534 11.3544 11.5694 11.309C10.8854 11.2637 10.2303 11.0166 9.68668 10.599C9.1431 10.1814 8.73554 9.61199 8.5155 8.96278C8.29545 8.31358 8.27282 7.61372 8.45044 6.95166C8.62807 6.28959 8.99799 5.69505 9.51344 5.24318C10.0289 4.7913 10.6667 4.50239 11.3464 4.41294C12.026 4.3235 12.7169 4.43754 13.3317 4.74066C13.9465 5.04378 14.4576 5.52237 14.8005 6.11593C15.0284 6.51041 15.1763 6.94595 15.2357 7.39762C15.2952 7.8493 15.265 8.30827 15.147 8.74828C15.0289 9.18829 14.8253 9.60072 14.5477 9.96199C14.2702 10.3233 13.9241 10.6263 13.5294 10.8537ZM11.1827 6.7826C11.0411 6.86277 10.9168 6.97033 10.8172 7.099C10.7175 7.22768 10.6445 7.3749 10.6023 7.53208C10.5601 7.68927 10.5496 7.85328 10.5714 8.01456C10.5933 8.17584 10.647 8.33116 10.7294 8.47149C10.8105 8.61215 10.9186 8.73545 11.0473 8.83436C11.1761 8.93326 11.3231 9.00584 11.48 9.04793C11.6368 9.09003 11.8004 9.10082 11.9614 9.0797C12.1224 9.05857 12.2776 9.00595 12.4183 8.92482C12.5589 8.84369 12.6823 8.73565 12.7812 8.60687C12.8801 8.47809 12.9526 8.33109 12.9947 8.17426C13.0368 8.01743 13.0476 7.85385 13.0265 7.69285C13.0054 7.53185 12.9527 7.37659 12.8716 7.23593C12.7914 7.0943 12.6839 6.97004 12.5552 6.87039C12.4265 6.77074 12.2793 6.69769 12.1221 6.6555C11.965 6.6133 11.8009 6.60281 11.6397 6.62463C11.4784 6.64646 11.3231 6.70015 11.1827 6.7826Z" fill="#99A9B3"/>
<path d="M22.7013 26.7377C22.1073 27.08 21.4253 27.2384 20.7413 27.1931C20.0573 27.1477 19.4021 26.9007 18.8586 26.483C18.315 26.0654 17.9074 25.496 17.6874 24.8468C17.4673 24.1976 17.4447 23.4978 17.6223 22.8357C17.7999 22.1736 18.1699 21.5791 18.6853 21.1272C19.2008 20.6753 19.8386 20.3864 20.5182 20.297C21.1978 20.2075 21.8887 20.3216 22.5035 20.6247C23.1184 20.9278 23.6295 21.4064 23.9724 22C24.2003 22.3944 24.3482 22.83 24.4076 23.2817C24.467 23.7333 24.4369 24.1923 24.3188 24.6323C24.2008 25.0723 23.9972 25.4848 23.7196 25.846C23.442 26.2073 23.096 26.5103 22.7013 26.7377ZM20.3457 22.6666C20.1354 22.7899 19.9663 22.9726 19.8596 23.1918C19.7529 23.411 19.7134 23.6568 19.7461 23.8984C19.7788 24.14 19.8823 24.3665 20.0434 24.5494C20.2046 24.7323 20.4162 24.8634 20.6518 24.9263C20.8873 24.9892 21.1361 24.981 21.367 24.9028C21.5979 24.8245 21.8005 24.6798 21.9493 24.4867C22.098 24.2936 22.1864 24.0608 22.2031 23.8176C22.2199 23.5744 22.1644 23.3317 22.0435 23.12C21.8781 22.8351 21.6065 22.6274 21.2883 22.5424C20.97 22.4574 20.6311 22.5021 20.3457 22.6666Z" fill="#99A9B3"/>
<path d="M16 32C12.8355 32 9.74207 31.0616 7.11088 29.3035C4.4797 27.5454 2.42894 25.0466 1.21793 22.1229C0.00693247 19.1993 -0.309921 15.9823 0.307443 12.8786C0.924806 9.77486 2.44866 6.92394 4.6863 4.6863C6.92394 2.44866 9.77487 0.924806 12.8786 0.307443C15.9823 -0.309921 19.1993 0.00693247 22.1229 1.21793C25.0466 2.42894 27.5454 4.4797 29.3035 7.11088C31.0616 9.74207 32 12.8355 32 16C32 20.2435 30.3143 24.3131 27.3137 27.3137C24.3131 30.3143 20.2435 32 16 32ZM16 2.66667C13.3629 2.66667 10.7851 3.44866 8.5924 4.91374C6.39975 6.37883 4.69078 8.46121 3.68161 10.8976C2.67244 13.3339 2.4084 16.0148 2.92287 18.6012C3.43734 21.1876 4.70722 23.5634 6.57192 25.4281C8.43661 27.2928 10.8124 28.5627 13.3988 29.0771C15.9852 29.5916 18.6661 29.3276 21.1024 28.3184C23.5388 27.3092 25.6212 25.6003 27.0863 23.4076C28.5513 21.215 29.3333 18.6371 29.3333 16C29.3239 12.4699 27.915 9.08769 25.4155 6.59489C22.9161 4.10209 19.5301 2.70222 16 2.70223V2.66667Z" fill="#99A9B3"/>
<path d="M15.9993 21.4313C14.9286 21.4313 13.882 21.1138 12.9918 20.519C12.1016 19.9241 11.4077 19.0787 10.998 18.0895C10.5883 17.1004 10.4811 16.0119 10.69 14.9619C10.8988 13.9118 11.4144 12.9472 12.1715 12.1901C12.9285 11.4331 13.8931 10.9175 14.9432 10.7086C15.9933 10.4998 17.0817 10.607 18.0709 11.0167C19.06 11.4264 19.9055 12.1202 20.5003 13.0105C21.0951 13.9007 21.4126 14.9473 21.4126 16.0179C21.4126 17.4537 20.8423 18.8306 19.8271 19.8458C18.8119 20.8609 17.435 21.4313 15.9993 21.4313ZM15.9993 13.2713C15.456 13.2713 14.925 13.4324 14.4733 13.7342C14.0216 14.036 13.6696 14.465 13.4617 14.9668C13.2538 15.4687 13.1994 16.021 13.3054 16.5538C13.4114 17.0866 13.673 17.576 14.0571 17.9601C14.4412 18.3443 14.9306 18.6059 15.4634 18.7118C15.9962 18.8178 16.5485 18.7634 17.0504 18.5555C17.5523 18.3476 17.9812 17.9956 18.283 17.5439C18.5848 17.0922 18.7459 16.5612 18.7459 16.0179C18.7459 15.6573 18.6749 15.3001 18.5369 14.9668C18.3988 14.6336 18.1965 14.3308 17.9415 14.0758C17.6864 13.8207 17.3836 13.6184 17.0504 13.4804C16.7171 13.3423 16.36 13.2713 15.9993 13.2713Z" fill="#99A9B3"/>
</svg>
