<svg width="33" height="33" viewBox="0 0 33 33" fill="none" xmlns="http://www.w3.org/2000/svg">
<path d="M28.214 0C29.1606 0 30.086 0.280708 30.8731 0.806628C31.6602 1.33255 32.2736 2.08006 32.6359 2.95463C32.9982 3.8292 33.0929 4.79155 32.9083 5.72C32.7236 6.64844 32.2677 7.50126 31.5984 8.17063C30.929 8.84 30.0762 9.29585 29.1477 9.48052C28.2193 9.6652 27.2569 9.57042 26.3824 9.20816C25.5078 8.8459 24.7603 8.23243 24.2344 7.44534C23.7084 6.65825 23.4277 5.73287 23.4277 4.78624C23.4277 3.51685 23.932 2.29945 24.8296 1.40186C25.7272 0.504264 26.9446 0 28.214 0ZM28.214 6.80961C28.6203 6.80961 29.0174 6.68914 29.3552 6.46342C29.693 6.23771 29.9563 5.91689 30.1118 5.54153C30.2673 5.16618 30.308 4.75315 30.2287 4.35468C30.1494 3.95621 29.9538 3.59019 29.6665 3.30291C29.3792 3.01562 29.0132 2.81998 28.6147 2.74072C28.2163 2.66146 27.8032 2.70214 27.4279 2.85761C27.0525 3.01309 26.7317 3.27638 26.506 3.61419C26.2803 3.952 26.1598 4.34915 26.1598 4.75543C26.1625 5.29845 26.3801 5.81831 26.7651 6.20132C27.15 6.58434 27.671 6.79935 28.214 6.79934V6.80961Z" fill="#99A9B3"/>
<path d="M26.4983 32.1377H29.9082L29.9082 8.28864H26.4983L26.4983 32.1377Z" fill="#99A9B3"/>
<path d="M4.78624 0C5.73287 0 6.65825 0.280708 7.44534 0.806628C8.23243 1.33255 8.8459 2.08006 9.20816 2.95463C9.57042 3.8292 9.6652 4.79155 9.48052 5.72C9.29585 6.64844 8.84 7.50126 8.17063 8.17063C7.50126 8.84 6.64844 9.29585 5.71999 9.48052C4.79155 9.6652 3.8292 9.57042 2.95463 9.20816C2.08006 8.8459 1.33255 8.23243 0.806627 7.44534C0.280708 6.65825 0 5.73287 0 4.78624C0 3.51685 0.504263 2.29945 1.40186 1.40186C2.29945 0.504264 3.51685 0 4.78624 0ZM4.78624 6.80961C5.19252 6.80961 5.58968 6.68914 5.92749 6.46342C6.2653 6.23771 6.52858 5.91689 6.68406 5.54153C6.83954 5.16618 6.88022 4.75315 6.80096 4.35468C6.72169 3.95621 6.52605 3.59019 6.23877 3.30291C5.95149 3.01562 5.58547 2.81998 5.187 2.74072C4.78852 2.66146 4.3755 2.70214 4.00014 2.85761C3.62479 3.01309 3.30397 3.27638 3.07825 3.61419C2.85254 3.952 2.73206 4.34915 2.73206 4.75543C2.73478 5.29845 2.9524 5.81831 3.33734 6.20132C3.72228 6.58434 4.24322 6.79935 4.78624 6.79934V6.80961Z" fill="#99A9B3"/>
<path d="M3.08029 32.1377H6.49023L6.49023 8.28864H3.08029L3.08029 32.1377Z" fill="#99A9B3"/>
<path d="M3.07031 28.7278V32.1377H12.7352V28.7278H3.07031Z" fill="#99A9B3"/>
<path d="M20.2441 28.7278V32.1377H29.9091V28.7278H20.2441Z" fill="#99A9B3"/>
</svg>
