<svg width="34" height="33" viewBox="0 0 34 33" fill="none" xmlns="http://www.w3.org/2000/svg">
<path d="M29.6682 27.3144C32.0608 27.3144 34.0004 25.3748 34.0004 22.9821C34.0004 20.5895 32.0608 18.6499 29.6682 18.6499C27.2755 18.6499 25.3359 20.5895 25.3359 22.9821C25.3359 25.3748 27.2755 27.3144 29.6682 27.3144Z" fill="#99A9B3"/>
<path d="M32.3012 21.2616L29.0414 20.1997C29.0414 20.0299 29.1582 19.86 29.2219 19.6901C29.3231 19.4337 29.4082 19.1713 29.4768 18.9043C29.9547 16.8001 29.8876 14.6087 29.282 12.5376C28.6763 10.4666 27.552 8.58435 26.0156 7.06921C24.4792 5.55407 22.5815 4.45614 20.5022 3.87938C18.4229 3.30262 16.2308 3.26611 14.1334 3.77332L13.3477 0.42857C16.0062 -0.196177 18.7796 -0.137039 21.4091 0.600461C24.0386 1.33796 26.4382 2.72977 28.3841 4.64592C30.3299 6.56208 31.7585 8.94009 32.5363 11.5579C33.3142 14.1757 33.4159 16.9479 32.8321 19.6157C32.7296 20.0336 32.602 20.445 32.4499 20.8475L32.3012 21.2616Z" fill="#99A9B3"/>
<path d="M4.33224 13.68C6.72488 13.68 8.66449 11.7404 8.66449 9.34775C8.66449 6.95511 6.72488 5.0155 4.33224 5.0155C1.93961 5.0155 0 6.95511 0 9.34775C0 11.7404 1.93961 13.68 4.33224 13.68Z" fill="#99A9B3"/>
<path d="M16.8512 32.3473C15.7446 32.3486 14.6411 32.2311 13.5596 31.9969C9.36304 31.0764 5.70249 28.5301 3.37984 24.9157C1.0572 21.3014 0.261857 16.9138 1.16806 12.7142C1.24856 12.2918 1.36218 11.8764 1.50784 11.4719C1.56094 11.3444 1.60341 11.2064 1.6565 11.0684L4.9163 12.1302C4.86321 12.3001 4.7995 12.47 4.73579 12.6292C4.6345 12.8892 4.54939 13.1552 4.48095 13.4256C4.01847 15.5316 4.09798 17.7205 4.71204 19.7874C5.3261 21.8543 6.45463 23.7316 7.99196 25.2435C9.52929 26.7553 11.4251 27.8523 13.502 28.4318C15.5789 29.0113 17.7688 29.0542 19.8668 28.5566L20.6207 31.9014C19.3851 32.192 18.1205 32.3416 16.8512 32.3473Z" fill="#99A9B3"/>
</svg>
