<svg width="30" height="32" viewBox="0 0 30 32" fill="none" xmlns="http://www.w3.org/2000/svg">
<path d="M28.0179 32.0001H0V16.0031C0.0988491 12.3534 1.61815 8.8863 4.23456 6.33979C6.85097 3.79329 10.3579 2.36841 14.009 2.36841C17.66 2.36841 21.1669 3.79329 23.7833 6.33979C26.3998 8.8863 27.9191 12.3534 28.0179 16.0031V32.0001ZM2.97954 29.0103H25.0486V16.0031C25.0486 13.0765 23.8861 10.2699 21.8167 8.20047C19.7473 6.13109 16.9406 4.96852 14.0141 4.96852C11.0875 4.96852 8.28086 6.13109 6.21148 8.20047C4.1421 10.2699 2.97954 13.0765 2.97954 16.0031V29.0103Z" fill="#99A9B3"/>
<path d="M21.7423 6.03842L0.855469 26.9253L2.95505 29.0249L23.8419 8.13801L21.7423 6.03842Z" fill="#99A9B3"/>
<path d="M25.6825 0.000157957L20.6914 4.99121L24.8906 9.19038L29.8816 4.19933L25.6825 0.000157957Z" fill="#99A9B3"/>
</svg>
