<svg xmlns="http://www.w3.org/2000/svg" viewBox="0 0 51.47 14.88"><defs><style>.cls-1,.cls-2{stroke:#99a9b3;stroke-miterlimit:10;stroke-width:0.5px;}.cls-2,.cls-3{fill:none;}</style></defs><g id="Layer_1" data-name="Layer 1"><path class="cls-1" d="M3.87,2.89H22.66a0,0,0,0,1,0,0V11a3.61,3.61,0,0,1-3.61,3.61H.26a0,0,0,0,1,0,0V6.5A3.61,3.61,0,0,1,3.87,2.89Z"/><path class="cls-2" d="M22.66,2.89H15.87a3.48,3.48,0,0,0-3.23,2.44l-2.36,6.85a3.49,3.49,0,0,1-3.23,2.43H.26"/><path class="cls-1" d="M29.33,2.89H48.12a0,0,0,0,1,0,0V11a3.61,3.61,0,0,1-3.61,3.61H25.72a0,0,0,0,1,0,0V6.5a3.61,3.61,0,0,1,3.61-3.61Z"/><path class="cls-2" d="M48.12,2.89H41.33A3.47,3.47,0,0,0,38.1,5.33l-2.37,6.85a3.47,3.47,0,0,1-3.22,2.43H25.72"/><rect class="cls-3" width="51.47" height="14.88"/></g><g id="Layer_6" data-name="Layer 6"><path class="cls-1" d="M23.05.26A2.69,2.69,0,1,0,25.74,3,2.7,2.7,0,0,0,23.05.26Z"/><path class="cls-1" d="M48.51.26A2.69,2.69,0,1,0,51.2,3,2.7,2.7,0,0,0,48.51.26Z"/></g></svg>